# xmcd
#
# Track frame offsets:
#	150
#	15095
#	33375
#	49005
#	63670
#	76877
#	98425
#	112900
#	125890
#	140127
#
# Disc length: 2043 seconds
#
# Revision: 2
# Processed by: cddbd v1.5.2PL0 Copyright (c) Steve Scherf et al.
# Submitted via: audiograbber 1.83.01
#
DISCID=7b07f90a
DTITLE=Various Artist - Greatest Country Hits Of the 80's- 1983
DYEAR=1989
DGENRE=Country
TTITLE0=Gilley, Mickey - Fool For Your Love
TTITLE1=Frickie, Janie - Tell Me A Lie
TTITLE2=Thomas, B. J. - Whatever Happened To Old Fashioned Love
TTITLE3=Rodrigues, Johnny - How Could I Love Her so Much
TTITLE4=Gatlins - Houston (Means I'm One Day Closer To You)
TTITLE5=Nelson, Willie - Pancho And Lefty- Haggard, Merle
TTITLE6=Coe, David Allen - The Ride
TTITLE7=Jones, George - Tennessee Whiskey
TTITLE8=Skaggs, Ricky - Highway 40 Blues
TTITLE9=Dalton, Lacy J. - Dream Baby (How Long Must I Dream)
EXTD=
EXTT0=
EXTT1=
EXTT2=
EXTT3=
EXTT4=
EXTT5=
EXTT6=
EXTT7=
EXTT8=
EXTT9=
PLAYORDER=
